<?xml version="1.0" encoding="utf-8"?>
<!-- Generator: Adobe Illustrator 21.0.2, SVG Export Plug-In . SVG Version: 6.00 Build 0)  -->
<svg version="1.1" xmlns="http://www.w3.org/2000/svg" xmlns:xlink="http://www.w3.org/1999/xlink" x="0px" y="0px"
	 viewBox="0 0 640 480" style="enable-background:new 0 0 640 480;" xml:space="preserve">
<style type="text/css">
	.st0{fill:url(#SVGID_1_);}
	.st1{fill:url(#SVGID_2_);}
	.st2{fill:url(#SVGID_3_);}
	.st3{fill:url(#SVGID_4_);}
	.st4{fill:url(#SVGID_5_);}
	.st5{fill:url(#SVGID_6_);}
	.st6{fill:url(#SVGID_7_);}
	.st7{fill:url(#SVGID_8_);}
	.st8{fill:url(#SVGID_9_);}
	.st9{fill:url(#SVGID_10_);}
	.st10{fill:url(#SVGID_11_);}
	.st11{fill:url(#SVGID_12_);}
	.st12{fill:url(#SVGID_13_);}
	.st13{fill:url(#SVGID_14_);}
	.st14{fill:url(#SVGID_15_);}
</style>
<g id="alt-lan">
	<g>
		<path d="M88.4,387.2l27.4,87.5h-22l-5.4-18H60.1l-5.5,18h-18l28-87.5H88.4z M65,440.5h18.5l-9.2-30.7L65,440.5z"/>
		<path d="M145.9,457.4h34.8v17.3h-55.6v-87.5h20.8V457.4z"/>
		<path d="M239.6,387.2v17.3h-21.7v70.2h-20.8v-70.2h-21.8v-17.3H239.6z"/>
	</g>
	<g>
		<path d="M334.3,457.4h34.8v17.3h-55.6v-87.4h20.8V457.4z"/>
		<path d="M422.6,387.3l27.4,87.4h-22l-5.4-18h-28.3l-5.5,18h-18l28.1-87.4H422.6z M399.2,440.6h18.5l-9.2-30.7L399.2,440.6z"/>
		<path d="M526.8,387.3v87.4h-17.5L475,415.6c0,1.5,0.1,2.5,0.1,2.9c0.2,1.5,0.3,2.8,0.3,3.8v52.3h-16v-87.4h22.1l29.8,51.6
			c-0.3-2.6-0.4-4.5-0.4-5.8v-45.7H526.8z"/>
	</g>
	<linearGradient id="SVGID_1_" gradientUnits="userSpaceOnUse" x1="257.7007" y1="446.8579" x2="274.3115" y2="429.8787">
		<stop  offset="0" style="stop-color:#F2B818"/>
		<stop  offset="1" style="stop-color:#FF4100"/>
	</linearGradient>
	<rect x="257" y="423.6" class="st0" width="23.8" height="23.6"/>
</g>
<g id="logo">
	
		<radialGradient id="SVGID_2_" cx="365.1536" cy="314.039" r="143.3227" gradientTransform="matrix(1.117 -8.274909e-03 1.030766e-02 1.3914 -35.9547 -99.3497)" gradientUnits="userSpaceOnUse">
		<stop  offset="0" style="stop-color:#CACACA;stop-opacity:0.4"/>
		<stop  offset="0.2335" style="stop-color:#C7C7C7;stop-opacity:0.3066"/>
		<stop  offset="0.4074" style="stop-color:#BEBEBE;stop-opacity:0.2371"/>
		<stop  offset="0.5619" style="stop-color:#AEADAE;stop-opacity:0.1753"/>
		<stop  offset="0.7052" style="stop-color:#989797;stop-opacity:0.1179"/>
		<stop  offset="0.8407" style="stop-color:#7B797A;stop-opacity:6.372097e-02"/>
		<stop  offset="0.9687" style="stop-color:#585657;stop-opacity:1.252681e-02"/>
		<stop  offset="1" style="stop-color:#4E4C4D;stop-opacity:0"/>
	</radialGradient>
	<path class="st1" d="M614.6,332.8c0,3.3-107.1,6.7-239.4,7.7c-132.2,1-239.4-0.9-239.5-4.2c0-3.3,107.1-6.7,239.4-7.7
		C507.3,327.7,614.6,329.5,614.6,332.8z"/>
	<g>
		<linearGradient id="SVGID_3_" gradientUnits="userSpaceOnUse" x1="292.139" y1="304.4924" x2="285.1747" y2="256.4052">
			<stop  offset="0" style="stop-color:#CACACA"/>
			<stop  offset="1" style="stop-color:#4E4C4D"/>
		</linearGradient>
		<path class="st2" d="M340.3,220.3c-14.5,5.7-28.2,10.8-39.5,14.2c-17.3,5.2-36.6,10.9-54.4,15.9c-2,6.1-4.3,12.6-6.3,17.7
			c-3.3,8.5-6.3,15.7-10.1,22.7c2.4-0.3,4.5-0.6,6.3-0.9c14.5-2.2,56.3-7.7,85.5-12.1c5.5-12.6,7.9-20.6,10.3-27.4
			C334.3,244,337.3,232.7,340.3,220.3z"/>
		<linearGradient id="SVGID_4_" gradientUnits="userSpaceOnUse" x1="453.552" y1="281.1154" x2="446.5876" y2="233.0281">
			<stop  offset="0" style="stop-color:#CACACA"/>
			<stop  offset="1" style="stop-color:#4E4C4D"/>
		</linearGradient>
		<path class="st3" d="M359.1,182.4c-0.9,6.6-2,12.9-3.2,18.8c44.9-17.4,93-37,125.7-52c8.3-43.1,17-91.3,22.1-115.7
			c-19.1,17.1-85.7,67.6-138,105.3C364,149.8,361.5,164.4,359.1,182.4z"/>
		<linearGradient id="SVGID_5_" gradientUnits="userSpaceOnUse" x1="257.2081" y1="309.5514" x2="250.2438" y2="261.4641">
			<stop  offset="0" style="stop-color:#CACACA"/>
			<stop  offset="1" style="stop-color:#4E4C4D"/>
		</linearGradient>
		<path class="st4" d="M317,289.1c-19.5,2.6-37.5,5-48.4,6.1c-12.6,1.2-28.2,3-43.9,4.7c-1.6,2.8-3.1,5.4-4.5,7.9
			c-3.8,6.8-14.3,22-21.3,32c27,0,47.1,1,76.8,1c10.4,1.7,29.4-27.4,34.1-36C311.9,300.7,314.4,295.2,317,289.1z"/>
		<linearGradient id="SVGID_6_" gradientUnits="userSpaceOnUse" x1="416.4817" y1="286.4842" x2="409.5173" y2="238.3969">
			<stop  offset="0" style="stop-color:#CACACA"/>
			<stop  offset="1" style="stop-color:#4E4C4D"/>
		</linearGradient>
		<path class="st5" d="M352.8,215.3c-3.5,14.5-6.9,27-9.9,37.7c-2.4,8.8-4.7,15-8.2,22.7c4-0.6,7.4-1.2,10.2-1.8
			c17.6-3.4,78.7-13.3,110.9-19.4c3.4-10.2,7-20.1,9.2-29.1c4.4-18.1,8.6-35.4,13.9-62.2c-19.9,9-45.4,20.2-63.2,26.8
			C397.7,196.9,374.9,206.4,352.8,215.3z"/>
		<linearGradient id="SVGID_7_" gradientUnits="userSpaceOnUse" x1="201.3608" y1="317.6396" x2="194.3964" y2="269.5524">
			<stop  offset="0" style="stop-color:#CACACA"/>
			<stop  offset="1" style="stop-color:#4E4C4D"/>
		</linearGradient>
		<path class="st6" d="M219.5,292c9.5-18,12.5-25.6,17.7-39.1c-10.9,3-21,5.8-29.4,7.9c-20.2,5.1-34,8.7-40.8,10
			c-3.7,8.6-5.2,12.7-11.5,24.9c-0.6,1.2-1.3,2.4-2,3.6C165.7,298,197.7,294.7,219.5,292z"/>
		<linearGradient id="SVGID_8_" gradientUnits="userSpaceOnUse" x1="168.4583" y1="322.4048" x2="161.4939" y2="274.3175">
			<stop  offset="0" style="stop-color:#CACACA"/>
			<stop  offset="1" style="stop-color:#4E4C4D"/>
		</linearGradient>
		<path class="st7" d="M208.2,313.7c0.6-1.1,3.4-5.8,6.9-12.8c-14.7,1.6-29,3.1-40.7,4.1c-13.1,1.1-21.1,1.7-25.9,2
			c-11.1,16-27.3,32.6-27.3,32.6s21.2,1.4,60.8,1.4C193.5,340.1,206.7,316.6,208.2,313.7z"/>
		<linearGradient id="SVGID_9_" gradientUnits="userSpaceOnUse" x1="317.2785" y1="300.8516" x2="310.3141" y2="252.7643">
			<stop  offset="0" style="stop-color:#CACACA"/>
			<stop  offset="1" style="stop-color:#4E4C4D"/>
		</linearGradient>
		<path class="st8" d="M255.2,214c-0.9,7.9-2.9,17.1-5.8,26.7c58.4-19,68.2-23.8,94.2-34.7c2.2-9.6,4.5-18.9,5.9-26.6
			c2-11.4,3.8-22.7,4.7-32.4c-21.7,15.5-41,27.3-50.3,32.7c-11.1,6.6-33.5,19-47.7,25.6C256,208,255.6,210.6,255.2,214z"/>
		<linearGradient id="SVGID_10_" gradientUnits="userSpaceOnUse" x1="372.7878" y1="292.8122" x2="365.8235" y2="244.725">
			<stop  offset="0" style="stop-color:#CACACA"/>
			<stop  offset="1" style="stop-color:#4E4C4D"/>
		</linearGradient>
		<path class="st9" d="M393.3,279.2c-13.8,1.4-39.1,4.8-64.2,8.2c-3.7,7.4-7.4,14.5-10.5,20.6c-4,8.2-12.5,21.3-19.7,31.9
			c55.8,0.1,106.1,0.3,109.4,0c7.7-0.6,11.2-7.4,18.5-16.7c7.1-9.6,15.7-30.5,23.4-52.5C433,273.7,409,277.7,393.3,279.2z"/>
		<linearGradient id="SVGID_11_" gradientUnits="userSpaceOnUse" x1="220.9212" y1="315.4313" x2="213.8835" y2="266.8378">
			<stop  offset="0" style="stop-color:#CACACA"/>
			<stop  offset="1" style="stop-color:#4E4C4D"/>
		</linearGradient>
		<path class="st10" d="M240.9,243.4c4.7-13.2,6.1-22.6,7.5-34.8c-39.7,18.9-68.7,30.5-68.7,30.5c-2.1,5.9-5.5,14.4-9.4,23.7
			C178.8,260.6,213.7,251.5,240.9,243.4z"/>
	</g>
	<linearGradient id="SVGID_12_" gradientUnits="userSpaceOnUse" x1="362.2442" y1="207.3497" x2="540.1491" y2="25.4993">
		<stop  offset="0" style="stop-color:#F2B818"/>
		<stop  offset="1" style="stop-color:#FF4100"/>
	</linearGradient>
	<path class="st11" d="M499.5,140.9c0,0,13.8-59.6,22.5-133.2c-47.1,41.1-126.1,102.6-155.6,121.5c-3.6,29.7-3.9,30-10.4,71.9
		C427.7,173.1,408.6,183,499.5,140.9z"/>
	<g>
		<linearGradient id="SVGID_13_" gradientUnits="userSpaceOnUse" x1="337.3632" y1="339.4612" x2="337.5206" y2="329.5045">
			<stop  offset="0" style="stop-color:#C2C2C2"/>
			<stop  offset="1" style="stop-color:#787878"/>
		</linearGradient>
		<path class="st12" d="M275.4,332.8c2.5,3.2,7.3,6.2,10.8,8c56.9-0.2,109.2-0.5,122.3-0.9c-15.7-1.5-20.4-9.9-27.1-27.1
			c-3.4,0.4-56,3-114.8,5.8C268.6,323.8,270.8,327,275.4,332.8z"/>
		<linearGradient id="SVGID_14_" gradientUnits="userSpaceOnUse" x1="226.493" y1="339.9265" x2="226.6157" y2="332.163">
			<stop  offset="0" style="stop-color:#C2C2C2"/>
			<stop  offset="1" style="stop-color:#787878"/>
		</linearGradient>
		<path class="st13" d="M262.5,332.1c-2.3-3.1-5.7-10.3-6.5-13c-27.2,1.3-55.2,2.6-79.8,3.7c1.1,3.7,2.7,7.3,5.9,12
			c2,3.1,5.6,5,9.1,6.3c25.8,0,56.9-0.1,86-0.2C269.4,338.2,266.5,337.5,262.5,332.1z"/>
		<linearGradient id="SVGID_15_" gradientUnits="userSpaceOnUse" x1="141.6486" y1="340.2081" x2="141.7484" y2="333.8934">
			<stop  offset="0" style="stop-color:#C2C2C2"/>
			<stop  offset="1" style="stop-color:#787878"/>
		</linearGradient>
		<path class="st14" d="M169.3,331.1c-1.7-2.6-2.6-5.3-3.1-7.9c-37.6,1.7-64.9,3-64.9,3c4.5,15.2,14.2,14.9,14.2,14.9s28,0,66.8-0.1
			C177.1,339.7,172.7,336.2,169.3,331.1z"/>
	</g>
</g>
</svg>
